<svg xmlns="http://www.w3.org/2000/svg" xmlns:xlink="http://www.w3.org/1999/xlink" fill="#000000" height="800px" width="800px" id="Capa_1" viewBox="0 0 58.037 58.037" xml:space="preserve"><g>	<g>		<path d="M57.662,32.277c-0.191,0.294-0.512,0.453-0.838,0.453c-0.188,0-0.377-0.053-0.546-0.163   c-0.463-0.302-0.593-0.922-0.29-1.384c0.152-0.233,0.293-0.486,0.419-0.753c0.237-0.499,0.835-0.713,1.332-0.477   c0.08,0.038,0.139,0.097,0.203,0.152c-0.087-0.718-0.238-1.487-0.472-2.313c-0.078-0.277-0.188-0.542-0.285-0.763l-2.412-6.418   c-0.377-1.004-1.315-1.651-2.39-1.651c-0.819,0-1.567,0.38-2.052,1.043c-1.191,1.628-2.992,2.639-4.7,2.639l-4.167-0.004   l-3.702-4.135l-0.164-0.146c-1.088-0.776-2.533-0.931-3.759-0.403c-1.419,0.615-2.938,1.59-4.697,2.718   c-0.471,0.302-0.961,0.615-1.465,0.933l6.063,6.343c0.382,0.399,0.367,1.032-0.031,1.414c-0.194,0.186-0.443,0.277-0.691,0.277   c-0.264,0-0.526-0.104-0.723-0.309l-6.364-6.658c-0.706,0.42-1.445,0.837-2.219,1.247l5.013,5.013   c0.391,0.391,0.391,1.023,0,1.414c-0.195,0.195-0.451,0.293-0.707,0.293s-0.512-0.098-0.707-0.293l-5.486-5.486   c-0.713,0.332-1.444,0.656-2.216,0.955l4.117,4.117c0.391,0.391,0.391,1.023,0,1.414c-0.195,0.195-0.451,0.293-0.707,0.293   s-0.512-0.098-0.707-0.293l-4.797-4.797c-0.651,0.206-1.319,0.399-2.013,0.57c-0.931,0.231-1.891,0.355-2.907,0.486l-7.776,0.038   C3.507,27.509,2.278,28,1.382,28.893c0.306,0.432,0.23,1.03-0.191,1.362c-0.183,0.144-0.4,0.213-0.616,0.213   c-0.075,0-0.144-0.032-0.217-0.049c-0.006,0.015-0.015,0.028-0.022,0.044c-0.824,2.063-0.089,4.449,1.75,5.675l0.122,0.08   c4.657,3.076,10.188,4.455,15.783,3.934c4.063-0.381,9.823-0.998,14.196-1.776c2.527-0.448,5.117-0.385,7.554,0.189l5.185,1.223   l0.23,0.077c1.104,0.35,2.268,0.527,3.461,0.527c3.242,0,6.069-1.278,7.756-3.507c0.838-1.108,1.658-2.82,1.664-5.278   C57.916,31.835,57.798,32.068,57.662,32.277z M4.504,32.499c-0.186,0.319-0.521,0.498-0.866,0.498   c-0.17,0-0.343-0.043-0.501-0.135c-0.313-0.182-0.615-0.371-0.906-0.567c-0.457-0.31-0.577-0.931-0.268-1.389   c0.309-0.456,0.93-0.578,1.389-0.268c0.252,0.171,0.516,0.335,0.789,0.493C4.618,31.41,4.781,32.022,4.504,32.499z M8.223,33.98   c-0.145,0.41-0.53,0.666-0.942,0.666c-0.11,0-0.224-0.019-0.334-0.058c-0.329-0.116-0.653-0.237-0.973-0.364   c-0.513-0.204-0.764-0.785-0.561-1.299c0.205-0.513,0.786-0.764,1.299-0.561c0.296,0.117,0.597,0.23,0.902,0.339   C8.135,32.887,8.408,33.458,8.223,33.98z M12.11,34.944c-0.102,0.469-0.516,0.789-0.977,0.789c-0.07,0-0.141-0.007-0.212-0.022   c-0.336-0.072-0.671-0.151-1.007-0.234c-0.535-0.134-0.861-0.677-0.729-1.213s0.671-0.859,1.213-0.729   c0.314,0.079,0.63,0.152,0.944,0.221C11.883,33.873,12.226,34.405,12.11,34.944z M15.083,36.362c-0.033,0-0.066-0.002-0.1-0.005   c-0.334-0.033-0.677-0.072-1.024-0.118c-0.548-0.07-0.934-0.572-0.862-1.12c0.07-0.548,0.564-0.938,1.12-0.862   c0.328,0.042,0.649,0.079,0.964,0.11c0.55,0.055,0.951,0.545,0.896,1.094C16.025,35.977,15.59,36.362,15.083,36.362z    M19.207,36.415c-0.015,0.002-0.1,0.011-0.115,0.012c-0.297,0.028-0.629,0.049-0.981,0.06c-0.01,0-0.02,0-0.03,0   c-0.538,0-0.982-0.429-0.999-0.971c-0.016-0.552,0.418-1.013,0.971-1.029c0.306-0.009,0.595-0.025,0.862-0.051   c0.542-0.06,1.062,0.339,1.123,0.88C20.098,35.857,19.748,36.344,19.207,36.415z M23.188,35.922l-0.997,0.139   c-0.046,0.006-0.091,0.009-0.136,0.009c-0.493,0-0.922-0.363-0.99-0.865c-0.074-0.547,0.31-1.051,0.856-1.126l0.985-0.137   c0.548-0.078,1.053,0.303,1.131,0.85C24.115,35.338,23.735,35.845,23.188,35.922z M27.147,35.349l-0.986,0.142   c-0.049,0.008-0.097,0.011-0.145,0.011c-0.489,0-0.916-0.358-0.988-0.856c-0.08-0.547,0.299-1.054,0.846-1.133l0.992-0.144   c0.545-0.081,1.053,0.303,1.131,0.85C28.075,34.764,27.694,35.271,27.147,35.349z M31.076,34.865   c-0.328,0.033-0.655,0.067-0.982,0.104c-0.038,0.004-0.075,0.006-0.112,0.006c-0.503,0-0.936-0.378-0.993-0.889   c-0.062-0.549,0.334-1.044,0.883-1.105c0.335-0.037,0.67-0.073,1.006-0.106c0.557-0.049,1.04,0.347,1.095,0.896   C32.026,34.32,31.626,34.81,31.076,34.865z M34.977,34.637c-0.324,0.003-0.647,0.012-0.971,0.023   c-0.013,0.001-0.026,0.001-0.039,0.001c-0.534,0-0.978-0.423-0.998-0.962c-0.021-0.552,0.409-1.017,0.961-1.037   c0.343-0.014,0.686-0.022,1.029-0.025c0.537-0.039,1.004,0.439,1.009,0.991C35.973,34.181,35.529,34.632,34.977,34.637z    M38.957,34.881c-0.043,0-0.088-0.003-0.132-0.009c-0.331-0.044-0.654-0.084-0.967-0.117c-0.55-0.059-0.947-0.551-0.889-1.1   s0.542-0.951,1.1-0.889c0.33,0.035,0.669,0.077,1.018,0.123c0.548,0.072,0.933,0.575,0.86,1.122   C39.881,34.515,39.451,34.881,38.957,34.881z M42.914,35.482c-0.049,0-0.099-0.004-0.149-0.011l-0.994-0.153   c-0.545-0.085-0.919-0.597-0.834-1.143c0.085-0.545,0.587-0.917,1.143-0.834l0.982,0.151c0.546,0.082,0.923,0.592,0.841,1.138   C43.828,35.126,43.401,35.482,42.914,35.482z M46.886,35.963c-0.026,0-0.054-0.001-0.081-0.003   c-0.337-0.027-0.678-0.059-1.019-0.093c-0.549-0.057-0.948-0.548-0.893-1.098c0.057-0.549,0.541-0.929,1.098-0.893   c0.325,0.034,0.65,0.063,0.974,0.089c0.55,0.044,0.961,0.526,0.917,1.077C47.84,35.567,47.403,35.963,46.886,35.963z    M50.993,35.936c-0.348,0.04-0.702,0.068-1.061,0.086c-0.017,0.001-0.033,0.001-0.05,0.001c-0.529,0-0.972-0.416-0.998-0.951   c-0.027-0.551,0.398-1.021,0.95-1.048c0.315-0.016,0.627-0.04,0.934-0.074c0.549-0.069,1.043,0.332,1.105,0.881   S51.542,35.874,50.993,35.936z M55.185,34.639c-0.315,0.188-0.656,0.358-1.013,0.509c-0.127,0.054-0.26,0.079-0.39,0.079   c-0.39,0-0.76-0.229-0.921-0.61c-0.215-0.509,0.022-1.096,0.531-1.311c0.274-0.116,0.534-0.246,0.772-0.388   c0.477-0.281,1.089-0.124,1.37,0.351C55.817,33.745,55.661,34.358,55.185,34.639z"></path>	</g></g></svg>